<svg xmlns="http://www.w3.org/2000/svg" viewBox="0 0 100 100" fill="none">
  <!-- Orange sun circle matching real logo -->
  <circle cx="38" cy="42" r="30" fill="#FA8150"/>
  <!-- Prawn body outline -->
  <g stroke="#0B36B8" stroke-width="3" stroke-linecap="round" stroke-linejoin="round" fill="none">
    <!-- Main curved body -->
    <path d="M22 72 C16 58 18 42 28 34 C38 26 52 28 58 38 C64 48 60 62 52 70"/>
    <!-- Tail fan -->
    <path d="M52 70 L58 78"/>
    <path d="M52 70 L50 80"/>
    <path d="M52 70 L44 78"/>
    <!-- Head/rostrum -->
    <path d="M28 34 L20 24"/>
    <path d="M32 32 L26 20"/>
    <!-- Antennae -->
    <path d="M28 34 L14 28"/>
    <path d="M26 36 L12 34"/>
    <!-- Body segments -->
    <path d="M24 52 Q38 48 50 52"/>
    <path d="M22 60 Q36 56 50 60"/>
    <!-- Eye -->
    <circle cx="33" cy="35" r="2.5" fill="#0B36B8" stroke="none"/>
    <!-- Walking legs -->
    <path d="M30 56 L22 64"/>
    <path d="M36 54 L30 64"/>
    <path d="M42 54 L38 64"/>
    <path d="M48 56 L46 66"/>
  </g>
</svg>
