<svg xmlns="http://www.w3.org/2000/svg" viewBox="0 0 340 120" fill="none">
  <!-- Orange sun circle -->
  <circle cx="52" cy="42" r="34" fill="#FA8150"/>

  <!-- Shrimp line art -->
  <g stroke="#0B36B8" stroke-width="2.4" stroke-linecap="round" stroke-linejoin="round" fill="none">
    <path d="M18 78 C18 58, 32 38, 54 34 C76 38, 90 58, 90 78"/>
    <path d="M24 78 C24 62, 36 48, 54 44 C72 48, 84 62, 84 78"/>
    <path d="M30 66 Q42 60, 54 58 Q66 60, 78 66"/>
    <path d="M26 72 Q40 66, 54 64 Q68 66, 82 72"/>
    <path d="M18 78 L6 88"/>
    <path d="M18 78 L10 80"/>
    <path d="M18 78 L12 92"/>
    <path d="M46 38 L38 18"/>
    <path d="M62 38 L70 18"/>
    <path d="M38 18 L36 13"/>
    <path d="M70 18 L72 13"/>
    <path d="M44 46 L40 36"/>
    <path d="M64 46 L68 36"/>
    <path d="M34 70 L22 80"/>
    <path d="M42 74 L32 86"/>
    <path d="M50 76 L44 90"/>
    <path d="M58 76 L64 90"/>
    <path d="M66 74 L76 86"/>
    <path d="M74 70 L86 80"/>
    <circle cx="54" cy="40" r="2" fill="#0B36B8" stroke="none"/>
  </g>

  <!-- Brand wordmark -->
  <text x="108" y="38" font-family="'Arial Black', 'Helvetica Neue', Arial, sans-serif" font-size="22" font-weight="900" fill="#0B36B8" letter-spacing="1">THE</text>
  <text x="108" y="68" font-family="'Arial Black', 'Helvetica Neue', Arial, sans-serif" font-size="22" font-weight="900" fill="#0B36B8" letter-spacing="1">BLU</text>
  <text x="108" y="98" font-family="'Arial Black', 'Helvetica Neue', Arial, sans-serif" font-size="22" font-weight="900" fill="#FA8150" letter-spacing="1">PRO</text>
</svg>
